<?xml version="1.0" encoding="UTF-8"?>
<svg xmlns="http://www.w3.org/2000/svg" xmlns:xlink="http://www.w3.org/1999/xlink" viewBox="0 0 96 96" width="96px" height="96px">
<g id="surface188618270">
<path style=" stroke:none;fill-rule:nonzero;fill:rgb(100%,100%,100%);fill-opacity:1;" d="M 48 10 C 42.722656 10 26.660156 10 17.78125 18.109375 C 12.492188 23.375 10 30.988281 10 42 L 10 48 C 10 59.011719 12.492188 66.625 17.84375 71.953125 C 20.507812 74.382812 24.136719 76.324219 28.578125 77.664062 L 30 78.09375 L 30 88.75 C 30 90 30.363281 90 30.480469 90 C 30.726562 90 31.121094 89.921875 31.871094 89.257812 C 32.050781 89.078125 33.371094 87.652344 39.789062 80.460938 L 40.4375 79.734375 L 41.40625 79.796875 C 43.558594 79.929688 45.777344 80 48 80 C 53.277344 80 69.339844 80 78.21875 71.890625 C 83.507812 66.621094 86 59.011719 86 48 L 86 42 C 86 30.988281 83.507812 23.375 78.15625 18.046875 C 69.339844 10 53.277344 10 48 10 Z M 48 10 "/>
<path style=" stroke:none;fill-rule:nonzero;fill:rgb(11.764706%,65.490198%,55.29412%);fill-opacity:1;" d="M 66.902344 57.707031 C 64.679688 55.835938 63.652344 55.269531 60.585938 53.429688 C 59.308594 52.660156 57.359375 52 56.339844 52 C 55.640625 52 54.804688 52.535156 54.292969 53.046875 C 52.980469 54.359375 52.550781 56 50.25 56 C 48 56 44.070312 53.710938 41.25 50.75 C 38.289062 47.929688 36 44 36 41.75 C 36 39.449219 37.613281 38.988281 38.925781 37.675781 C 39.4375 37.164062 40 36.328125 40 35.632812 C 40 34.609375 39.339844 32.691406 38.570312 31.414062 C 36.730469 28.34375 36.164062 27.316406 34.292969 25.097656 C 33.65625 24.347656 32.9375 24.003906 32.179688 24 C 30.902344 23.996094 29.222656 24.632812 28.089844 25.476562 C 26.378906 26.753906 24.59375 28.484375 24.117188 30.644531 C 24.050781 30.941406 24.015625 31.234375 24.003906 31.53125 C 23.910156 33.78125 24.792969 36.066406 25.746094 38 C 27.992188 42.558594 30.964844 46.96875 34.199219 50.910156 C 35.234375 52.171875 36.359375 53.34375 37.527344 54.472656 C 38.65625 55.636719 39.828125 56.765625 41.089844 57.800781 C 45.03125 61.035156 49.441406 64.007812 54 66.253906 C 55.914062 67.195312 58.171875 68.0625 60.398438 68 C 60.71875 67.988281 61.035156 67.953125 61.355469 67.882812 C 63.515625 67.40625 65.246094 65.621094 66.523438 63.910156 C 67.367188 62.777344 68.003906 61.101562 68 59.820312 C 67.996094 59.0625 67.652344 58.34375 66.902344 57.707031 Z M 68 48 C 66.894531 48 66 47.105469 66 46 L 66 44 C 66 34.074219 57.925781 26 48 26 C 46.894531 26 46 25.105469 46 24 C 46 22.894531 46.894531 22 48 22 C 60.128906 22 70 31.871094 70 44 L 70 46 C 70 47.105469 69.105469 48 68 48 Z M 55.714844 44 C 54.828125 44 54.015625 43.402344 53.78125 42.503906 C 53.234375 40.402344 51.59375 38.761719 49.5 38.21875 C 48.429688 37.941406 47.789062 36.851562 48.0625 35.78125 C 48.339844 34.714844 49.429688 34.070312 50.503906 34.347656 C 53.996094 35.253906 56.738281 37.988281 57.652344 41.492188 C 57.929688 42.5625 57.289062 43.652344 56.222656 43.933594 C 56.050781 43.976562 55.882812 44 55.714844 44 Z M 55.714844 44 "/>
<path style=" stroke:none;fill-rule:nonzero;fill:rgb(11.764706%,65.490198%,55.29412%);fill-opacity:1;" d="M 62 46 C 60.894531 46 60 45.105469 60 44 C 60 37.625 55.011719 32.363281 48.644531 32.027344 C 47.539062 31.96875 46.695312 31.027344 46.753906 29.925781 C 46.808594 28.820312 47.769531 27.972656 48.855469 28.035156 C 57.347656 28.480469 64 35.496094 64 44 C 64 45.105469 63.105469 46 62 46 Z M 62 46 "/>
<path style=" stroke:none;fill-rule:nonzero;fill:rgb(11.764706%,65.490198%,55.29412%);fill-opacity:1;" d="M 48 8 C 39 8 24.976562 8.828125 16.433594 16.632812 C 10.390625 22.644531 8 31.082031 8 42 C 8 42.902344 7.996094 43.910156 8.003906 45 C 7.996094 46.085938 8 47.09375 8 47.996094 C 8 58.914062 10.390625 67.351562 16.433594 73.367188 C 19.683594 76.335938 23.738281 78.289062 28 79.578125 L 28 88.75 C 28 91.941406 30.097656 92 30.480469 92 L 30.5 92 C 31.488281 91.996094 32.34375 91.511719 33.199219 90.75 C 33.519531 90.464844 37.238281 86.320312 41.28125 81.789062 C 43.691406 81.945312 45.976562 82 47.996094 82 C 56.996094 82 71.019531 81.171875 79.566406 73.367188 C 85.605469 67.355469 87.996094 58.914062 87.996094 47.996094 C 87.996094 47.09375 88 46.085938 87.992188 44.996094 C 88 43.910156 87.996094 42.902344 87.996094 41.996094 C 87.996094 31.078125 85.605469 22.644531 79.566406 16.628906 C 71.023438 8.828125 57 8 48 8 Z M 82 47.300781 L 82 47.996094 C 82 57.808594 79.910156 64.496094 75.429688 69.023438 C 67.664062 76 52.875 76 47.996094 76 C 46.515625 76 44.105469 75.996094 41.265625 75.800781 C 40.472656 76.6875 32 86.164062 32 86.164062 L 32 74.441406 C 27.792969 73.429688 23.632812 71.773438 20.570312 69.023438 C 16.089844 64.496094 14 57.808594 14 47.996094 L 14 47.300781 C 14 46.601562 13.996094 45.84375 14.003906 44.957031 C 13.996094 44.15625 13.996094 43.398438 14 42.695312 L 14 42 C 14 32.1875 16.089844 25.503906 20.570312 20.976562 C 28.332031 13.996094 43.125 13.996094 48 13.996094 C 52.875 13.996094 67.664062 13.996094 75.425781 20.976562 C 79.910156 25.503906 81.996094 32.1875 81.996094 42 L 81.996094 42.695312 C 81.996094 43.398438 82 44.15625 81.992188 45.042969 C 82 45.84375 82 46.601562 82 47.300781 Z M 82 47.300781 "/>
</g>
</svg>
