<?xml version="1.0" encoding="UTF-8"?>
<svg xmlns="http://www.w3.org/2000/svg" xmlns:xlink="http://www.w3.org/1999/xlink" viewBox="0 0 96 96" width="96px" height="96px">
<g id="surface182559113">
<path style=" stroke:none;fill-rule:nonzero;fill:rgb(5.490196%,70.588237%,57.647061%);fill-opacity:1;" d="M 48 10 C 27 10 10 27 10 48 C 10 69 27 86 48 86 C 69 86 86 69 86 48 C 86 27 69 10 48 10 Z M 48 10 "/>
<path style=" stroke:none;fill-rule:nonzero;fill:rgb(100%,100%,100%);fill-opacity:1;" d="M 42.398438 41.398438 L 42.398438 48 L 33 48 L 33 58 L 42.398438 58 L 42.398438 85.398438 C 44.199219 85.800781 46 86 48 86 C 49.800781 86 51.398438 85.800781 53.199219 85.601562 L 53.199219 58 L 63 58 L 64.601562 48 L 53.199219 48 L 53.199219 42.601562 C 53.199219 38.398438 54.601562 34.800781 58.398438 34.800781 L 64.601562 34.800781 L 64.601562 26 C 63.601562 25.800781 61.199219 25.601562 56.800781 25.601562 C 47.601562 25.601562 42.398438 30.398438 42.398438 41.398438 Z M 42.398438 41.398438 "/>
</g>
</svg>
