<?xml version="1.0" encoding="UTF-8"?>
<svg xmlns="http://www.w3.org/2000/svg" xmlns:xlink="http://www.w3.org/1999/xlink" viewBox="0 0 96 96" width="96px" height="96px">
<g id="surface182685896">
<path style=" stroke:none;fill-rule:nonzero;fill:rgb(5.490196%,70.588237%,57.647061%);fill-opacity:1;" d="M 83.339844 26.960938 C 82.539062 27.480469 81.398438 27.960938 80.921875 28.5 C 80.738281 28.679688 80.640625 28.878906 80.679688 29.078125 L 80.679688 31.140625 L 80.078125 33.160156 L 79.480469 35.160156 L 78.820312 37.359375 L 77.460938 41.859375 L 76.140625 46.300781 L 75.140625 49.640625 C 75.140625 50.160156 75.121094 50.679688 75.078125 51.179688 C 74.941406 53.101562 74.539062 54.941406 73.898438 56.660156 C 73.519531 57.71875 73.058594 58.738281 72.5 59.699219 C 72.300781 60.078125 72.058594 60.460938 71.820312 60.820312 C 71.019531 62.078125 70.058594 63.238281 69 64.261719 C 68.179688 65.078125 67.28125 65.839844 66.300781 66.480469 C 66.300781 66.480469 66.300781 66.480469 66.28125 66.480469 C 66.121094 66.621094 65.941406 66.738281 65.738281 66.839844 C 65.121094 67.261719 64.460938 67.621094 63.78125 67.941406 C 63.320312 68.179688 62.859375 68.378906 62.378906 68.558594 C 62.28125 68.621094 62.160156 68.660156 62.058594 68.699219 C 60.921875 69.238281 59.601562 69.601562 58.28125 69.78125 C 58.199219 69.800781 58.140625 69.800781 58.058594 69.820312 C 57.261719 69.960938 56.480469 70.078125 55.679688 70.140625 C 55.320312 70.179688 54.941406 70.199219 54.578125 70.199219 L 53.160156 70.121094 L 46.320312 69.761719 C 46.320312 69.738281 46.300781 69.761719 46.300781 69.761719 L 42.859375 69.578125 C 42.601562 69.578125 42.320312 69.578125 42.058594 69.558594 C 40.980469 69.519531 39.941406 69.398438 38.898438 69.179688 C 38.878906 69.179688 38.878906 69.179688 38.878906 69.179688 C 36.980469 68.820312 35.160156 68.179688 33.460938 67.320312 C 32.519531 66.839844 31.601562 66.300781 30.738281 65.679688 C 30.378906 65.421875 30.039062 65.140625 29.699219 64.839844 C 28.738281 64.039062 27.878906 63.179688 27.078125 62.300781 C 26.960938 62.179688 26.859375 62.058594 26.761719 61.941406 C 26.640625 61.820312 26.519531 61.679688 26.421875 61.558594 C 25.660156 60.601562 25.019531 59.621094 24.5 58.578125 C 24.019531 57.660156 23.640625 56.679688 23.339844 55.601562 C 23.21875 55.21875 23.121094 54.859375 23.039062 54.460938 C 23.019531 54.441406 23 54.398438 23 54.359375 C 22.800781 53.539062 22.621094 52.679688 22.519531 51.820312 C 22.398438 51.160156 22.339844 50.5 22.339844 49.820312 C 22.300781 49.558594 22.300781 49.28125 22.300781 49.019531 L 26.121094 43.121094 L 29.859375 37.359375 L 31.558594 34.738281 L 33.101562 32.378906 L 33.621094 31.558594 L 33.621094 29.5 C 33.660156 29.039062 33.679688 28.558594 33.660156 28.121094 C 33.640625 26.71875 33.359375 25.359375 32.898438 24.058594 C 32.460938 22.679688 31.839844 21.378906 31.199219 20.179688 C 30.441406 18.800781 29.640625 17.558594 28.980469 16.441406 C 28 14.800781 27.320312 13.460938 27.5 12.519531 C 28.941406 12.179688 30.460938 12 32 12 L 64 12 C 72.359375 12 79.558594 17.199219 82.539062 24.519531 C 82.859375 25.300781 83.140625 26.121094 83.339844 26.960938 Z M 83.339844 26.960938 "/>
<path style=" stroke:none;fill-rule:nonzero;fill:rgb(5.490196%,70.588237%,57.647061%);fill-opacity:1;" d="M 84 32 L 84 32.539062 L 81.238281 34.140625 L 79.480469 35.160156 L 77.539062 36.28125 L 73.660156 38.539062 L 69.859375 40.738281 L 65.980469 42.980469 L 64.441406 43.878906 C 64.441406 44.839844 64.199219 45.71875 63.761719 46.519531 C 63.140625 47.679688 62.101562 48.640625 60.78125 49.460938 C 59.441406 50.28125 57.800781 50.941406 55.960938 51.421875 C 55.960938 51.421875 55.960938 51.398438 55.941406 51.421875 C 48.820312 53.261719 39.101562 52.421875 34.378906 48.898438 C 33.058594 47.921875 32.140625 46.71875 31.738281 45.339844 C 31.621094 44.878906 31.558594 44.378906 31.558594 43.878906 L 31.558594 29.5 C 31.578125 29.199219 31.378906 28.898438 31.019531 28.601562 C 29.941406 27.738281 27.398438 26.921875 24.558594 26.101562 C 22.339844 25.480469 19.960938 24.859375 17.960938 24.261719 C 16.378906 23.78125 15.039062 23.300781 14.238281 22.839844 C 14.601562 22.140625 15.019531 21.441406 15.460938 20.78125 C 18.261719 16.679688 22.539062 13.660156 27.5 12.519531 C 28.941406 12.179688 30.460938 12 32 12 L 53.601562 12 C 64.339844 13.878906 74.238281 18.261719 82.539062 24.519531 C 82.859375 25.300781 83.140625 26.121094 83.339844 26.960938 C 83.699219 28.28125 83.921875 29.640625 83.980469 31.058594 C 84 31.359375 84 31.679688 84 32 Z M 84 32 "/>
<path style=" stroke:none;fill-rule:nonzero;fill:rgb(5.490196%,70.588237%,57.647061%);fill-opacity:1;" d="M 84 32 L 84 40.820312 L 83.558594 42.179688 L 82.058594 46.839844 L 80.5 51.640625 L 79.679688 54.199219 L 78.921875 56.578125 L 78.179688 58.839844 L 77.460938 61.078125 L 77.078125 62.261719 L 76.578125 63.820312 C 76.578125 65.339844 76.539062 66.679688 76.441406 67.820312 C 76.421875 67.941406 76.398438 68.058594 76.398438 68.179688 C 76.28125 69.238281 76.121094 70.140625 75.859375 70.898438 C 75.839844 71.019531 75.800781 71.140625 75.761719 71.238281 C 75.238281 72.679688 74.460938 73.601562 73.300781 74.199219 C 73.019531 74.359375 72.699219 74.480469 72.359375 74.601562 C 71.300781 74.960938 69.960938 75.140625 68.320312 75.238281 C 67.121094 75.320312 65.738281 75.339844 64.179688 75.339844 L 62.800781 75.339844 L 60.421875 75.238281 L 60 75.21875 L 55.660156 75.039062 L 51.261719 74.859375 L 36.761719 74.261719 L 33 74.101562 L 32.480469 74.101562 C 30.921875 74.078125 29.578125 73.980469 28.421875 73.820312 C 26.738281 73.558594 25.441406 73.121094 24.460938 72.460938 C 23.058594 71.558594 22.238281 70.238281 21.761719 68.398438 C 21.640625 67.960938 21.539062 67.5 21.480469 67 C 21.28125 65.839844 21.179688 64.5 21.121094 63 C 21.121094 62.699219 21.121094 62.398438 21.101562 62.078125 C 21.078125 62.058594 21.101562 62.058594 21.101562 62.058594 L 21.101562 60.898438 C 21.078125 60.320312 21.078125 59.71875 21.078125 59.101562 L 21.179688 55.878906 L 21.238281 53.578125 L 21.320312 50.898438 L 21.320312 50.519531 L 21.460938 45.601562 L 21.601562 40.679688 L 21.738281 36.058594 L 21.859375 31.519531 L 21.898438 30.320312 C 21.898438 29.699219 19.800781 29.339844 17.460938 29.039062 C 15.601562 28.800781 13.558594 28.578125 12.339844 28.300781 C 12.441406 27.839844 12.539062 27.378906 12.660156 26.941406 C 13.019531 25.5 13.558594 24.140625 14.238281 22.839844 C 14.601562 22.140625 15.019531 21.441406 15.460938 20.78125 C 19.78125 18.878906 24.28125 17.398438 28.980469 16.441406 C 33.101562 15.578125 37.398438 15.121094 41.839844 15.121094 C 56.558594 15.121094 70.160156 20.101562 80.921875 28.5 C 81.960938 29.300781 82.980469 30.160156 83.980469 31.058594 C 84 31.359375 84 31.679688 84 32 Z M 84 32 "/>
<path style=" stroke:none;fill-rule:nonzero;fill:rgb(5.490196%,70.588237%,57.647061%);fill-opacity:1;" d="M 84 36.738281 L 84 45.820312 L 82.898438 47.941406 L 80.800781 52.039062 L 79.679688 54.199219 L 78.660156 56.179688 L 78.21875 57.039062 C 78.21875 57.660156 78.21875 58.261719 78.179688 58.839844 C 78.179688 59.699219 78.140625 60.519531 78.078125 61.28125 C 78 62.179688 77.878906 63 77.761719 63.761719 C 77.460938 65.339844 77.039062 66.699219 76.441406 67.820312 C 76.359375 67.960938 76.28125 68.101562 76.199219 68.21875 C 75.980469 68.578125 75.71875 68.921875 75.441406 69.238281 C 75.078125 69.679688 74.679688 70.058594 74.21875 70.378906 C 73.539062 70.898438 72.738281 71.320312 71.820312 71.640625 C 70.679688 72.058594 69.359375 72.339844 67.800781 72.5 C 66.78125 72.601562 65.660156 72.660156 64.441406 72.660156 L 63.601562 72.699219 L 59.441406 72.941406 L 59.421875 72.941406 L 55 73.199219 L 50.5 73.460938 L 44.300781 73.820312 L 36.761719 74.261719 L 35.660156 74.320312 C 34.640625 74.320312 33.679688 74.261719 32.761719 74.140625 C 32.660156 74.121094 32.578125 74.101562 32.480469 74.101562 C 31.121094 73.878906 29.878906 73.519531 28.761719 73.019531 C 27.398438 72.421875 26.21875 71.621094 25.21875 70.660156 C 24.339844 69.800781 23.578125 68.820312 22.960938 67.71875 C 22.820312 67.460938 22.679688 67.21875 22.558594 66.941406 C 21.960938 65.761719 21.480469 64.441406 21.121094 63 C 21.058594 62.761719 21 62.5 20.960938 62.238281 C 20.839844 61.78125 20.738281 61.300781 20.679688 60.800781 C 20.460938 59.519531 20.339844 58.160156 20.28125 56.738281 L 20.28125 56.71875 C 20.261719 56.140625 20.238281 55.578125 20.238281 54.980469 L 19.261719 52.640625 L 19.121094 52.28125 L 19 51.980469 L 17.5 48.398438 L 17.261719 47.820312 L 15.820312 44.359375 L 14.21875 40.5 C 14.21875 40.5 14.21875 40.5 14.199219 40.5 L 12.578125 36.601562 L 12 35.179688 L 12 32 C 12 30.738281 12.121094 29.5 12.339844 28.300781 C 12.441406 27.839844 12.539062 27.378906 12.660156 26.941406 C 14.359375 25.960938 16.140625 25.058594 17.960938 24.261719 C 22.121094 22.398438 26.578125 21.019531 31.199219 20.179688 C 34.640625 19.558594 38.21875 19.21875 41.839844 19.21875 C 56.460938 19.21875 69.71875 24.519531 80.078125 33.160156 C 80.480469 33.480469 80.859375 33.800781 81.238281 34.140625 C 82.179688 34.960938 83.101562 35.820312 84 36.738281 Z M 84 36.738281 "/>
<path style=" stroke:none;fill-rule:nonzero;fill:rgb(5.490196%,70.588237%,57.647061%);fill-opacity:1;" d="M 84 42.699219 L 84 52.980469 L 82.859375 55.359375 L 80.699219 59.859375 L 80.679688 59.921875 C 80.679688 60.78125 80.640625 61.558594 80.578125 62.261719 C 80.378906 64.558594 79.820312 66.019531 78.898438 66.921875 C 78.238281 67.601562 77.421875 67.980469 76.398438 68.179688 C 76.339844 68.199219 76.261719 68.199219 76.199219 68.21875 C 75.878906 68.28125 75.539062 68.320312 75.179688 68.320312 C 73.941406 68.441406 72.480469 68.359375 70.800781 68.238281 C 70.621094 68.238281 70.421875 68.21875 70.21875 68.199219 C 69 68.121094 67.699219 68.039062 66.261719 67.980469 C 65.480469 67.960938 64.660156 67.941406 63.820312 67.941406 L 63.78125 67.941406 L 61.761719 68.101562 L 61.738281 68.101562 L 57.199219 68.421875 L 52.019531 68.820312 L 51.261719 68.878906 L 45.199219 69.320312 L 42.058594 69.558594 L 38.960938 69.78125 C 38.421875 69.78125 37.898438 69.78125 37.378906 69.761719 C 37.378906 69.761719 37.359375 69.738281 37.359375 69.761719 C 35.101562 69.71875 33.078125 69.578125 31.28125 69.238281 C 29.621094 68.960938 28.160156 68.519531 26.921875 67.859375 C 25.640625 67.238281 24.578125 66.359375 23.71875 65.238281 C 22.898438 64.140625 22.300781 62.761719 21.921875 61.101562 C 21.921875 61.078125 21.921875 61.078125 21.921875 61.078125 C 21.640625 59.738281 21.480469 58.179688 21.480469 56.421875 L 21.179688 55.878906 L 19.398438 52.699219 L 19.140625 52.261719 L 19 51.980469 L 17.140625 48.679688 L 16.21875 47.019531 L 15.058594 44.960938 L 13.058594 41.378906 L 12 39.5 L 12 32.140625 C 13.761719 30.980469 15.578125 29.960938 17.460938 29.039062 C 19.738281 27.878906 22.101562 26.898438 24.558594 26.101562 C 27.238281 25.21875 30.039062 24.519531 32.898438 24.058594 C 35.800781 23.578125 38.78125 23.339844 41.839844 23.339844 C 55.441406 23.339844 67.921875 28.199219 77.539062 36.28125 C 77.980469 36.621094 78.398438 37 78.820312 37.359375 C 80.5 38.859375 82.101562 40.480469 83.558594 42.179688 C 83.71875 42.359375 83.878906 42.519531 84 42.699219 Z M 84 42.699219 "/>
<path style=" stroke:none;fill-rule:nonzero;fill:rgb(5.490196%,70.588237%,57.647061%);fill-opacity:1;" d="M 84 49.421875 L 84 63.878906 C 83.519531 63.601562 82.859375 63.261719 82.039062 62.898438 C 81.601562 62.679688 81.101562 62.460938 80.578125 62.261719 C 79.820312 61.921875 79 61.601562 78.078125 61.28125 C 77.878906 61.199219 77.679688 61.140625 77.460938 61.078125 C 77.101562 60.941406 76.71875 60.820312 76.339844 60.699219 C 75.160156 60.339844 73.859375 60 72.5 59.699219 C 71.980469 59.601562 71.441406 59.5 70.898438 59.421875 C 69.160156 59.121094 67.300781 58.941406 65.359375 58.921875 C 65.199219 58.898438 65.019531 58.898438 64.859375 58.898438 L 59.71875 58.941406 L 52.71875 58.980469 L 52.699219 58.980469 L 37.71875 59.101562 C 32.960938 59.101562 30.039062 60.238281 28.28125 60.699219 C 28.28125 60.699219 28.261719 60.699219 28.261719 60.71875 C 26.398438 61.199219 25.820312 60.898438 25.660156 57.640625 C 25.621094 56.738281 25.601562 55.578125 25.601562 54.160156 L 24.480469 53.300781 L 22.519531 51.820312 L 21.320312 50.898438 L 21.078125 50.71875 L 17.761719 48.199219 L 17.261719 47.820312 L 16.21875 47.019531 L 14.300781 45.578125 L 12 43.820312 L 12 37.019531 C 12.199219 36.859375 12.378906 36.71875 12.578125 36.601562 C 15.480469 34.601562 18.578125 32.898438 21.859375 31.519531 C 24.78125 30.28125 27.859375 29.300781 31.019531 28.601562 C 31.878906 28.421875 32.761719 28.238281 33.660156 28.121094 C 36.320312 27.660156 39.058594 27.441406 41.839844 27.441406 C 53.859375 27.441406 64.898438 31.621094 73.660156 38.539062 C 74.980469 39.578125 76.261719 40.679688 77.460938 41.859375 C 79.101562 43.421875 80.640625 45.078125 82.058594 46.839844 C 82.339844 47.199219 82.621094 47.558594 82.898438 47.941406 C 83.28125 48.421875 83.640625 48.921875 84 49.421875 Z M 84 49.421875 "/>
<path style=" stroke:none;fill-rule:nonzero;fill:rgb(5.490196%,70.588237%,57.647061%);fill-opacity:1;" d="M 84 57.441406 L 84 64 C 84 65.300781 83.878906 66.578125 83.640625 67.820312 C 83.28125 69.660156 82.660156 71.421875 81.820312 73.058594 C 81.378906 73.160156 80.878906 73.160156 80.320312 73.078125 C 79.058594 72.859375 77.578125 72.199219 75.980469 71.339844 C 75.898438 71.320312 75.820312 71.28125 75.761719 71.238281 C 75.261719 70.980469 74.738281 70.699219 74.21875 70.378906 C 73.160156 69.800781 72.039062 69.160156 70.921875 68.558594 C 70.679688 68.441406 70.441406 68.320312 70.21875 68.199219 C 68.941406 67.539062 67.621094 66.941406 66.300781 66.480469 C 66.300781 66.480469 66.300781 66.480469 66.28125 66.480469 C 66 66.378906 65.699219 66.28125 65.398438 66.199219 C 64.261719 65.878906 63.101562 65.679688 61.980469 65.679688 L 59.78125 65.039062 L 50.039062 62.21875 C 50.039062 62.21875 50.039062 62.21875 50.019531 62.21875 L 44.039062 60.480469 L 44.019531 60.480469 L 41.421875 59.71875 C 33.898438 59.71875 29.28125 62.921875 27.039062 61.699219 C 26.160156 61.238281 25.640625 60.078125 25.460938 57.800781 C 25.398438 57.160156 25.378906 56.441406 25.378906 55.601562 L 23.039062 54.460938 L 22.941406 54.421875 L 22.921875 54.421875 L 21.238281 53.578125 L 19.398438 52.699219 L 19.261719 52.640625 L 18.921875 52.460938 L 15 50.558594 L 12 49.101562 L 12 42.238281 C 12.339844 41.941406 12.699219 41.660156 13.058594 41.378906 C 13.441406 41.078125 13.820312 40.800781 14.199219 40.5 C 14.21875 40.5 14.21875 40.5 14.21875 40.5 C 16.578125 38.800781 19.078125 37.300781 21.738281 36.058594 C 24.839844 34.578125 28.140625 33.441406 31.558594 32.699219 C 32.058594 32.578125 32.578125 32.460938 33.101562 32.378906 C 35.941406 31.839844 38.859375 31.558594 41.839844 31.558594 C 52.378906 31.558594 62.058594 34.980469 69.859375 40.738281 C 72.121094 42.421875 74.21875 44.28125 76.140625 46.300781 C 77.71875 47.960938 79.179688 49.761719 80.5 51.640625 C 80.601562 51.78125 80.699219 51.921875 80.800781 52.039062 C 81.539062 53.121094 82.21875 54.21875 82.859375 55.359375 C 83.28125 56.039062 83.640625 56.738281 84 57.441406 Z M 84 57.441406 "/>
<path style=" stroke:none;fill-rule:nonzero;fill:rgb(5.490196%,70.588237%,57.647061%);fill-opacity:1;" d="M 83.640625 67.820312 C 83.28125 69.660156 82.660156 71.421875 81.820312 73.058594 C 81.441406 73.800781 81.019531 74.5 80.558594 75.179688 C 80.28125 75.601562 79.980469 76 79.679688 76.378906 C 78.960938 76.101562 77.898438 75.699219 76.601562 75.261719 C 76.601562 75.261719 76.601562 75.261719 76.601562 75.238281 C 75.621094 74.898438 74.5 74.539062 73.300781 74.199219 C 72.960938 74.101562 72.621094 74 72.261719 73.898438 C 70.839844 73.519531 69.359375 73.179688 67.921875 72.980469 C 66.71875 72.78125 65.539062 72.660156 64.441406 72.660156 L 63.519531 72.398438 L 63.5 72.398438 L 58.660156 71 L 55.679688 70.140625 L 52.359375 69.179688 L 52.339844 69.179688 L 51.261719 68.878906 L 38.199219 65.121094 L 34.441406 64.039062 L 31.640625 63.378906 L 27.078125 62.300781 L 26.519531 62.160156 C 26.519531 62.160156 26.519531 62.160156 26.5 62.160156 L 21.921875 61.101562 C 21.921875 61.078125 21.921875 61.078125 21.921875 61.078125 L 21.101562 60.898438 L 20.679688 60.800781 L 17.339844 60.019531 L 16.960938 59.921875 L 14.121094 57.578125 L 12 55.800781 L 12 47.640625 C 12.738281 46.921875 13.5 46.238281 14.300781 45.578125 C 14.539062 45.359375 14.800781 45.160156 15.058594 44.960938 C 15.300781 44.761719 15.558594 44.558594 15.820312 44.359375 C 17.640625 42.980469 19.558594 41.738281 21.601562 40.679688 C 24.199219 39.28125 26.960938 38.160156 29.859375 37.359375 C 30.421875 37.179688 30.980469 37.019531 31.558594 36.898438 C 34.839844 36.078125 38.28125 35.660156 41.839844 35.660156 C 50.78125 35.660156 59.101562 38.359375 65.980469 42.980469 C 69.398438 45.28125 72.480469 48.039062 75.078125 51.179688 C 76.398438 52.761719 77.601562 54.421875 78.660156 56.179688 C 78.761719 56.320312 78.839844 56.441406 78.921875 56.578125 C 79.558594 57.640625 80.160156 58.738281 80.699219 59.859375 C 81.199219 60.859375 81.640625 61.859375 82.039062 62.898438 C 82.679688 64.5 83.199219 66.140625 83.640625 67.820312 Z M 83.640625 67.820312 "/>
<path style=" stroke:none;fill-rule:nonzero;fill:rgb(5.490196%,70.588237%,57.647061%);fill-opacity:1;" d="M 80.558594 75.179688 C 80.28125 75.601562 79.980469 76 79.679688 76.378906 C 78.800781 77.480469 77.839844 78.480469 76.761719 79.359375 C 75.820312 80.140625 74.820312 80.839844 73.761719 81.441406 C 73.359375 81.339844 72.960938 81.21875 72.539062 81.058594 C 71.21875 80.601562 69.839844 79.839844 68.558594 79.039062 C 66.640625 77.820312 64.980469 76.5 64.238281 75.898438 C 63.960938 75.660156 63.820312 75.539062 63.820312 75.539062 L 60.421875 75.238281 L 60 75.199219 L 55.601562 74.820312 L 51.039062 74.421875 L 44.300781 73.820312 L 33.621094 72.878906 L 33.578125 72.859375 L 29.820312 71.039062 L 26.019531 69.199219 L 22.960938 67.71875 L 22.300781 67.398438 L 21.480469 67 L 18.640625 65.621094 L 14.859375 63.800781 L 13.679688 63.21875 L 12 62.699219 L 12 53.761719 C 12.941406 52.640625 13.941406 51.578125 15 50.558594 C 15.679688 49.921875 16.398438 49.28125 17.140625 48.679688 C 17.261719 48.578125 17.378906 48.480469 17.5 48.398438 C 17.578125 48.300781 17.679688 48.238281 17.761719 48.199219 C 18.941406 47.238281 20.179688 46.378906 21.460938 45.601562 C 22.941406 44.660156 24.5 43.820312 26.121094 43.121094 C 27.859375 42.339844 29.679688 41.679688 31.558594 41.179688 C 34.820312 40.261719 38.28125 39.78125 41.839844 39.78125 C 50 39.78125 57.539062 42.261719 63.761719 46.519531 C 67.738281 49.238281 71.179688 52.679688 73.898438 56.660156 C 74.800781 57.941406 75.601562 59.300781 76.339844 60.699219 C 76.601562 61.21875 76.859375 61.738281 77.078125 62.261719 C 77.320312 62.761719 77.539062 63.261719 77.761719 63.761719 C 78.179688 64.800781 78.558594 65.839844 78.898438 66.921875 C 79.539062 68.921875 80.019531 70.960938 80.320312 73.078125 C 80.421875 73.78125 80.5 74.480469 80.558594 75.179688 Z M 80.558594 75.179688 "/>
<path style=" stroke:none;fill-rule:nonzero;fill:rgb(5.490196%,70.588237%,57.647061%);fill-opacity:1;" d="M 76.78125 78.839844 C 76.78125 79 76.78125 79.179688 76.761719 79.359375 C 75.820312 80.140625 74.820312 80.839844 73.761719 81.441406 C 73.320312 81.679688 72.878906 81.921875 72.421875 82.121094 C 71.960938 82.339844 71.5 82.539062 71.019531 82.71875 C 70.339844 82.359375 69.421875 81.921875 68.441406 81.5 C 67.058594 80.878906 65.558594 80.320312 64.398438 80.140625 C 64.121094 80.078125 63.859375 80.058594 63.621094 80.058594 L 60.339844 79.640625 L 60.300781 79.640625 L 56.21875 79.101562 L 52.101562 78.558594 L 50.179688 78.320312 L 35.058594 76.359375 C 34.078125 76.359375 33.039062 76.300781 31.960938 76.160156 C 30.640625 76.039062 29.261719 75.839844 27.878906 75.558594 C 26.519531 75.320312 25.140625 75 23.820312 74.660156 C 22.441406 74.339844 21.078125 73.960938 19.820312 73.601562 C 18.359375 73.160156 17 72.738281 15.859375 72.359375 C 14.921875 72.058594 14.121094 71.78125 13.5 71.558594 C 13.140625 70.699219 12.839844 69.800781 12.621094 68.878906 C 12.199219 67.320312 12 65.679688 12 64 L 12 60.660156 C 12.640625 59.601562 13.339844 58.558594 14.121094 57.578125 C 15.539062 55.699219 17.160156 53.980469 18.921875 52.460938 C 18.980469 52.378906 19.058594 52.320312 19.121094 52.28125 L 19.140625 52.261719 C 19.761719 51.699219 20.398438 51.199219 21.078125 50.71875 C 21.160156 50.640625 21.238281 50.578125 21.320312 50.519531 C 21.640625 50.28125 21.980469 50.039062 22.339844 49.820312 C 25.199219 47.878906 28.359375 46.359375 31.738281 45.339844 C 34.941406 44.378906 38.320312 43.878906 41.839844 43.878906 C 48.820312 43.878906 55.339844 45.941406 60.78125 49.460938 C 64.800781 52.039062 68.261719 55.441406 70.898438 59.421875 C 71.21875 59.878906 71.519531 60.339844 71.820312 60.820312 C 73.199219 63.160156 74.339844 65.679688 75.179688 68.320312 C 75.28125 68.621094 75.359375 68.921875 75.441406 69.238281 C 75.601562 69.78125 75.738281 70.339844 75.859375 70.898438 C 75.898438 71.039062 75.941406 71.179688 75.980469 71.339844 C 76.261719 72.601562 76.460938 73.921875 76.601562 75.238281 C 76.601562 75.261719 76.601562 75.261719 76.601562 75.261719 C 76.71875 76.441406 76.78125 77.640625 76.78125 78.839844 Z M 76.78125 78.839844 "/>
<path style=" stroke:none;fill-rule:nonzero;fill:rgb(5.490196%,70.588237%,57.647061%);fill-opacity:1;" d="M 72.660156 78.839844 C 72.660156 79.539062 72.621094 80.300781 72.539062 81.058594 C 72.5 81.421875 72.460938 81.78125 72.421875 82.121094 C 71.960938 82.339844 71.5 82.539062 71.019531 82.71875 C 70.121094 83.058594 69.199219 83.339844 68.261719 83.539062 C 67.621094 83.679688 66.960938 83.800781 66.300781 83.859375 L 66.28125 83.859375 C 65.660156 83.480469 64.941406 83.019531 64.199219 82.5 C 62.859375 81.558594 61.460938 80.5 60.339844 79.640625 C 60.320312 79.621094 60.320312 79.621094 60.300781 79.601562 C 59.121094 78.699219 58.28125 78.019531 58.28125 78.019531 L 56.160156 78.101562 L 52.078125 78.238281 L 50.179688 78.320312 L 42.539062 78.601562 L 36.078125 78.839844 C 35.660156 78.859375 35.160156 78.859375 34.539062 78.839844 L 34.519531 78.839844 C 33.679688 78.820312 32.679688 78.761719 31.578125 78.660156 C 30.300781 78.558594 28.898438 78.441406 27.480469 78.300781 C 26.101562 78.140625 24.699219 77.980469 23.359375 77.820312 C 21.878906 77.660156 20.480469 77.480469 19.28125 77.320312 C 18.339844 77.199219 17.519531 77.101562 16.859375 77.019531 C 16.300781 76.378906 15.800781 75.71875 15.320312 75 C 14.601562 73.921875 13.980469 72.78125 13.5 71.558594 C 13.140625 70.699219 12.839844 69.800781 12.621094 68.878906 C 13.199219 67.101562 13.960938 65.421875 14.859375 63.800781 C 15.578125 62.480469 16.421875 61.21875 17.339844 60.019531 C 18.238281 58.839844 19.21875 57.738281 20.28125 56.738281 L 20.28125 56.71875 C 20.578125 56.421875 20.878906 56.140625 21.179688 55.878906 C 21.738281 55.359375 22.320312 54.878906 22.921875 54.421875 L 22.941406 54.421875 C 22.960938 54.378906 22.980469 54.378906 23 54.359375 C 23.480469 53.980469 23.980469 53.640625 24.480469 53.300781 C 27.441406 51.28125 30.78125 49.78125 34.378906 48.898438 C 36.761719 48.320312 39.261719 48 41.839844 48 C 46.921875 48 51.71875 49.21875 55.941406 51.421875 L 55.960938 51.421875 C 59.578125 53.28125 62.78125 55.839844 65.359375 58.921875 C 66.78125 60.558594 68 62.359375 69 64.261719 C 69.699219 65.539062 70.300781 66.878906 70.800781 68.238281 C 70.839844 68.359375 70.878906 68.460938 70.921875 68.558594 C 71.261719 69.558594 71.558594 70.601562 71.820312 71.640625 C 72 72.378906 72.140625 73.140625 72.261719 73.898438 C 72.300781 74.140625 72.339844 74.359375 72.359375 74.601562 C 72.558594 75.980469 72.660156 77.398438 72.660156 78.839844 Z M 72.660156 78.839844 "/>
<path style=" stroke:none;fill-rule:nonzero;fill:rgb(5.490196%,70.588237%,57.647061%);fill-opacity:1;" d="M 68.558594 78.839844 L 68.558594 79.039062 C 68.558594 79.71875 68.5 80.578125 68.441406 81.5 C 68.378906 82.179688 68.320312 82.878906 68.261719 83.539062 C 67.621094 83.679688 66.960938 83.800781 66.300781 83.859375 L 66.28125 83.859375 C 65.519531 83.960938 64.78125 84 64 84 L 60.5 84 L 59.738281 83.78125 L 55.800781 82.578125 L 51.800781 81.378906 L 42.539062 78.601562 L 38.539062 77.398438 C 38.539062 77.398438 36.878906 78.058594 34.539062 78.839844 L 34.519531 78.839844 C 33.621094 79.140625 32.640625 79.460938 31.601562 79.78125 C 30.300781 80.160156 28.921875 80.539062 27.558594 80.839844 C 26.160156 81.160156 24.78125 81.398438 23.539062 81.5 C 23.160156 81.539062 22.78125 81.558594 22.441406 81.558594 C 21.320312 80.941406 20.238281 80.199219 19.261719 79.378906 C 18.398438 78.660156 17.601562 77.878906 16.859375 77.019531 C 16.300781 76.378906 15.800781 75.71875 15.320312 75 C 15.460938 74.101562 15.621094 73.21875 15.859375 72.359375 C 16.460938 69.980469 17.398438 67.699219 18.640625 65.621094 C 19.320312 64.441406 20.078125 63.300781 20.960938 62.238281 C 20.980469 62.179688 21.039062 62.121094 21.101562 62.078125 C 21.078125 62.058594 21.101562 62.058594 21.101562 62.058594 C 21.359375 61.71875 21.640625 61.398438 21.921875 61.101562 C 21.921875 61.078125 21.921875 61.078125 21.921875 61.078125 C 22.738281 60.199219 23.578125 59.359375 24.5 58.578125 C 24.820312 58.320312 25.121094 58.058594 25.460938 57.800781 C 25.519531 57.738281 25.578125 57.699219 25.660156 57.640625 C 30.160156 54.199219 35.78125 52.121094 41.839844 52.121094 C 48.71875 52.121094 54.980469 54.699219 59.71875 58.941406 C 62 61 63.941406 63.460938 65.398438 66.199219 C 65.519531 66.398438 65.640625 66.621094 65.738281 66.839844 C 65.921875 67.199219 66.101562 67.578125 66.261719 67.980469 C 66.921875 69.421875 67.441406 70.941406 67.800781 72.5 C 67.839844 72.660156 67.878906 72.820312 67.921875 72.980469 C 68.078125 73.71875 68.21875 74.480469 68.320312 75.238281 C 68.480469 76.421875 68.558594 77.621094 68.558594 78.839844 Z M 68.558594 78.839844 "/>
<path style=" stroke:none;fill-rule:nonzero;fill:rgb(5.490196%,70.588237%,57.647061%);fill-opacity:1;" d="M 64.441406 78.839844 C 64.441406 79.238281 64.421875 79.679688 64.398438 80.140625 C 64.359375 80.878906 64.300781 81.679688 64.199219 82.5 C 64.160156 83 64.078125 83.5 64 84 L 53.039062 84 L 50.921875 83.660156 L 42.640625 82.339844 L 41.460938 82.160156 L 38.761719 81.71875 C 37.578125 81.71875 35.019531 82.238281 32.320312 82.738281 C 30.898438 83 29.460938 83.28125 28.160156 83.460938 C 28 83.480469 27.839844 83.5 27.699219 83.519531 L 27.679688 83.519531 C 26.28125 83.21875 24.921875 82.761719 23.640625 82.160156 C 23.238281 81.980469 22.839844 81.78125 22.441406 81.558594 C 21.320312 80.941406 20.238281 80.199219 19.261719 79.378906 C 19.238281 79.140625 19.21875 78.941406 19.21875 78.839844 C 19.21875 78.320312 19.238281 77.820312 19.28125 77.320312 C 19.359375 76.039062 19.539062 74.800781 19.820312 73.601562 C 20.261719 71.78125 20.898438 70.019531 21.761719 68.398438 C 21.921875 68.058594 22.101562 67.71875 22.300781 67.398438 C 22.378906 67.238281 22.480469 67.101562 22.558594 66.941406 C 22.921875 66.359375 23.320312 65.800781 23.71875 65.238281 C 24.558594 64.140625 25.5 63.101562 26.5 62.160156 C 26.519531 62.160156 26.519531 62.160156 26.519531 62.160156 C 26.601562 62.078125 26.679688 62 26.761719 61.941406 C 26.859375 61.859375 26.941406 61.761719 27.039062 61.699219 C 27.441406 61.339844 27.839844 61.019531 28.261719 60.71875 C 28.261719 60.699219 28.28125 60.699219 28.28125 60.699219 C 32.058594 57.878906 36.738281 56.21875 41.839844 56.21875 C 45.800781 56.21875 49.480469 57.21875 52.699219 58.980469 L 52.71875 58.980469 C 55.480469 60.5 57.878906 62.558594 59.78125 65.039062 C 60.519531 66 61.179688 67.019531 61.738281 68.101562 L 61.761719 68.101562 C 61.859375 68.300781 61.960938 68.5 62.058594 68.699219 C 62.660156 69.878906 63.140625 71.121094 63.5 72.398438 L 63.519531 72.398438 C 63.539062 72.5 63.578125 72.601562 63.601562 72.699219 C 63.839844 73.558594 64.039062 74.441406 64.179688 75.339844 C 64.199219 75.519531 64.21875 75.71875 64.238281 75.898438 C 64.378906 76.859375 64.441406 77.839844 64.441406 78.839844 Z M 64.441406 78.839844 "/>
<path style=" stroke:none;fill-rule:nonzero;fill:rgb(5.490196%,70.588237%,57.647061%);fill-opacity:1;" d="M 60.339844 78.621094 C 60.339844 78.941406 60.339844 79.28125 60.300781 79.601562 L 60.300781 79.621094 C 60.300781 79.640625 60.300781 79.640625 60.300781 79.640625 C 60.261719 81.078125 60.058594 82.5 59.738281 83.78125 C 59.738281 83.859375 59.71875 83.921875 59.679688 84 L 50.339844 84 L 42.640625 82.339844 L 41.621094 82.121094 L 41.460938 82.160156 L 32.921875 83.921875 L 32.539062 84 L 32 84 C 30.71875 84 29.460938 83.878906 28.238281 83.640625 C 28.058594 83.601562 27.878906 83.558594 27.699219 83.519531 L 27.679688 83.519531 C 26.28125 83.21875 24.921875 82.761719 23.640625 82.160156 C 23.601562 81.941406 23.558594 81.71875 23.539062 81.5 C 23.398438 80.640625 23.339844 79.738281 23.339844 78.839844 C 23.339844 78.5 23.339844 78.160156 23.359375 77.820312 C 23.421875 76.738281 23.578125 75.679688 23.820312 74.660156 C 23.980469 73.898438 24.199219 73.160156 24.460938 72.460938 C 24.679688 71.839844 24.941406 71.238281 25.21875 70.660156 C 25.460938 70.160156 25.738281 69.679688 26.019531 69.199219 C 26.300781 68.738281 26.601562 68.300781 26.921875 67.859375 C 27.71875 66.761719 28.660156 65.738281 29.699219 64.839844 C 30.300781 64.320312 30.960938 63.820312 31.640625 63.378906 C 34.558594 61.460938 38.058594 60.339844 41.839844 60.339844 C 42.578125 60.339844 43.300781 60.378906 44 60.480469 L 44.039062 60.480469 C 46.179688 60.71875 48.179688 61.320312 50.019531 62.21875 C 50.039062 62.21875 50.039062 62.21875 50.039062 62.21875 C 52.941406 63.640625 55.398438 65.78125 57.199219 68.421875 C 57.5 68.859375 57.800781 69.339844 58.058594 69.820312 C 58.28125 70.199219 58.480469 70.601562 58.660156 71 C 58.941406 71.621094 59.199219 72.28125 59.421875 72.941406 L 59.441406 72.941406 C 59.660156 73.679688 59.859375 74.421875 60 75.199219 L 60 75.21875 C 60.21875 76.320312 60.339844 77.460938 60.339844 78.621094 Z M 60.339844 78.621094 "/>
<path style=" stroke:none;fill-rule:nonzero;fill:rgb(5.490196%,70.588237%,57.647061%);fill-opacity:1;" d="M 56.21875 79.039062 L 56.21875 79.101562 C 56.21875 80.28125 56.078125 81.441406 55.800781 82.578125 C 55.699219 83.058594 55.558594 83.539062 55.378906 84 L 46.421875 84 L 41.839844 82.738281 L 37.261719 84 L 32 84 C 30.71875 84 29.460938 83.878906 28.238281 83.640625 C 28.199219 83.578125 28.179688 83.519531 28.160156 83.460938 C 27.878906 82.601562 27.660156 81.738281 27.558594 80.839844 C 27.480469 80.261719 27.441406 79.660156 27.441406 79.039062 C 27.441406 78.800781 27.441406 78.539062 27.480469 78.300781 C 27.5 77.359375 27.640625 76.441406 27.878906 75.558594 C 28 74.960938 28.179688 74.378906 28.421875 73.820312 C 28.5 73.539062 28.621094 73.28125 28.761719 73.019531 C 29.058594 72.339844 29.421875 71.679688 29.820312 71.039062 C 30.261719 70.398438 30.738281 69.800781 31.28125 69.238281 C 31.921875 68.519531 32.640625 67.859375 33.460938 67.320312 C 34.859375 66.300781 36.460938 65.539062 38.199219 65.121094 C 39.359375 64.800781 40.578125 64.640625 41.839844 64.640625 C 45.839844 64.640625 49.421875 66.238281 52.019531 68.820312 C 52.121094 68.921875 52.238281 69.039062 52.339844 69.179688 L 52.359375 69.179688 C 52.640625 69.480469 52.898438 69.78125 53.160156 70.121094 C 53.898438 71.058594 54.519531 72.078125 55 73.199219 C 55.238281 73.71875 55.441406 74.261719 55.601562 74.820312 C 55.621094 74.898438 55.640625 74.960938 55.660156 75.039062 C 55.941406 76.019531 56.121094 77.039062 56.160156 78.101562 C 56.199219 78.398438 56.21875 78.71875 56.21875 79.039062 Z M 56.21875 79.039062 "/>
<path style=" stroke:none;fill-rule:nonzero;fill:rgb(5.490196%,70.588237%,57.647061%);fill-opacity:1;" d="M 52.121094 79.039062 C 52.121094 79.859375 52.019531 80.640625 51.800781 81.378906 C 51.601562 82.179688 51.300781 82.941406 50.921875 83.660156 C 50.859375 83.78125 50.71875 84 50.71875 84 L 32.960938 84 C 32.941406 83.980469 32.921875 83.941406 32.921875 83.921875 C 32.679688 83.539062 32.480469 83.160156 32.320312 82.738281 C 31.921875 81.820312 31.679688 80.820312 31.601562 79.78125 C 31.558594 79.539062 31.558594 79.28125 31.558594 79.039062 C 31.558594 78.921875 31.558594 78.78125 31.578125 78.660156 C 31.601562 77.78125 31.71875 76.941406 31.960938 76.160156 C 32.160156 75.441406 32.421875 74.78125 32.761719 74.140625 C 32.761719 74.140625 32.78125 74.121094 32.78125 74.101562 C 33.019531 73.679688 33.28125 73.261719 33.578125 72.859375 C 34.558594 71.539062 35.859375 70.460938 37.359375 69.761719 C 37.378906 69.761719 37.378906 69.761719 37.378906 69.761719 C 37.859375 69.519531 38.359375 69.320312 38.878906 69.179688 C 38.878906 69.179688 38.878906 69.179688 38.898438 69.179688 C 39.820312 68.898438 40.820312 68.761719 41.839844 68.761719 C 43.019531 68.761719 44.160156 68.941406 45.199219 69.320312 C 45.578125 69.421875 45.941406 69.578125 46.300781 69.761719 C 46.300781 69.761719 46.300781 69.761719 46.320312 69.761719 C 48.039062 70.578125 49.5 71.859375 50.5 73.460938 C 50.699219 73.761719 50.878906 74.078125 51.039062 74.421875 C 51.121094 74.558594 51.199219 74.71875 51.261719 74.859375 C 51.71875 75.898438 52 77.039062 52.078125 78.238281 C 52.101562 78.339844 52.101562 78.441406 52.101562 78.558594 C 52.121094 78.71875 52.121094 78.878906 52.121094 79.039062 Z M 52.121094 79.039062 "/>
<path style="fill:none;stroke-width:2;stroke-linecap:round;stroke-linejoin:round;stroke:rgb(100%,100%,100%);stroke-opacity:1;stroke-miterlimit:10;" d="M 30.000018 11.000007 L 18.000011 11.000007 C 14.099618 11.000007 11.000007 14.099618 11.000007 18.000011 L 11.000007 30.000018 C 11.000007 33.900411 14.099618 37.000022 18.000011 37.000022 L 30.000018 37.000022 C 33.900411 37.000022 37.000022 33.900411 37.000022 30.000018 L 37.000022 18.000011 C 37.000022 14.099618 33.900411 11.000007 30.000018 11.000007 Z M 30.000018 11.000007 " transform="matrix(1.999999,0,0,1.999999,0,0)"/>
<path style=" stroke:none;fill-rule:nonzero;fill:rgb(100%,100%,100%);fill-opacity:1;" d="M 64 32 C 64 33.105469 63.105469 34 62 34 C 60.894531 34 60 33.105469 60 32 C 60 30.894531 60.894531 30 62 30 C 63.105469 30 64 30.894531 64 32 Z M 64 32 "/>
<path style="fill:none;stroke-width:2;stroke-linecap:round;stroke-linejoin:round;stroke:rgb(100%,100%,100%);stroke-opacity:1;stroke-miterlimit:10;" d="M 30.000018 24.000014 C 30.000018 27.314469 27.314469 30.000018 24.000014 30.000018 C 20.685559 30.000018 18.000011 27.314469 18.000011 24.000014 C 18.000011 20.685559 20.685559 18.000011 24.000014 18.000011 C 27.314469 18.000011 30.000018 20.685559 30.000018 24.000014 Z M 30.000018 24.000014 " transform="matrix(1.999999,0,0,1.999999,0,0)"/>
</g>
</svg>
