<?xml version="1.0" encoding="UTF-8"?>
<svg xmlns="http://www.w3.org/2000/svg" xmlns:xlink="http://www.w3.org/1999/xlink" viewBox="0 0 96 96" width="96px" height="96px">
<g id="surface182919269">
<path style=" stroke:none;fill-rule:nonzero;fill:rgb(5.490196%,70.588237%,57.647061%);fill-opacity:1;" d="M 48 8 C 25.910156 8 8 25.910156 8 48 C 8 70.089844 25.910156 88 48 88 C 70.089844 88 88 70.089844 88 48 C 88 25.910156 70.089844 8 48 8 Z M 48 8 "/>
<path style=" stroke:none;fill-rule:nonzero;fill:rgb(100%,100%,100%);fill-opacity:1;" d="M 67.898438 30 L 60.40625 68.253906 C 60.40625 68.253906 60.085938 70 57.917969 70 C 56.765625 70 56.171875 69.453125 56.171875 69.453125 L 39.945312 55.984375 L 32.003906 51.984375 L 21.8125 49.273438 C 21.8125 49.273438 20 48.75 20 47.25 C 20 46 21.867188 45.402344 21.867188 45.402344 L 64.496094 28.46875 C 64.496094 28.464844 65.800781 27.996094 66.75 28 C 67.332031 28 68 28.25 68 29 C 68 29.5 67.898438 30 67.898438 30 Z M 67.898438 30 "/>
<path style=" stroke:none;fill-rule:nonzero;fill:rgb(69.01961%,74.509805%,77.254903%);fill-opacity:1;" d="M 46 61.011719 L 39.148438 67.757812 C 39.148438 67.757812 38.851562 67.988281 38.453125 67.996094 C 38.3125 68.003906 38.164062 67.980469 38.015625 67.910156 L 39.941406 55.980469 Z M 46 61.011719 "/>
<path style=" stroke:none;fill-rule:nonzero;fill:rgb(81.176472%,84.705883%,86.274511%);fill-opacity:1;" d="M 59.792969 36.390625 C 59.457031 35.953125 58.832031 35.871094 58.390625 36.207031 L 32 52 C 32 52 36.210938 63.785156 36.855469 65.824219 C 37.496094 67.867188 38.015625 67.914062 38.015625 67.914062 L 39.941406 55.984375 L 59.605469 37.792969 C 60.046875 37.457031 60.128906 36.832031 59.792969 36.390625 Z M 59.792969 36.390625 "/>
</g>
</svg>
